<svg id="_2" data-name="2" xmlns="http://www.w3.org/2000/svg" viewBox="0 0 284.61 283.46"><defs><style>.cls-1{fill:#1363a3;}.cls-2,.cls-4{fill:#fff;}.cls-2{stroke:#fff;stroke-width:20px;}.cls-2,.cls-3,.cls-5,.cls-6,.cls-7{stroke-miterlimit:10;}.cls-3,.cls-5,.cls-6,.cls-7{fill:none;stroke:#1363a3;}.cls-3{stroke-width:3px;}.cls-4{font-size:20px;font-family:HGB7X_CNKI;}.cls-5{stroke-width:4px;}.cls-7{stroke-width:2px;}</style></defs><title>4</title><g id="_4" data-name="4"><rect class="cls-1" x="1.15" width="283.46" height="283.46"/><rect class="cls-2" x="57.84" y="38.69" width="170.08" height="170.08"/><circle class="cls-1" cx="158.53" cy="133.97" r="12.49"/><path class="cls-1" d="M625.23,1596.33v-36h0a13.7,13.7,0,0,0-13.65-13.66H594.24a13.7,13.7,0,0,0-13.66,13.66v44" transform="translate(-444.37 -1397.21)"/><circle class="cls-3" cx="194.5" cy="148.66" r="8.49"/><path class="cls-3" d="M654,1571.2v-2.5h0a9.31,9.31,0,0,0-9.28-9.28H633a9.3,9.3,0,0,0-9.27,9.28v26.65" transform="translate(-444.37 -1397.21)"/><circle class="cls-3" cx="537.13" cy="1544.06" r="9.98" transform="translate(-991.31 -1076.85) rotate(-22.36)"/><path class="cls-3" d="M555,1597.91v-27h0A10.94,10.94,0,0,0,544.06,1560H530.2a11,11,0,0,0-10.42,7.68" transform="translate(-444.37 -1397.21)"/><circle class="cls-3" cx="568.33" cy="1540.11" r="8.51" transform="translate(-1366.94 -544.26) rotate(-45)"/><path class="cls-3" d="M583.39,1561.37a9.34,9.34,0,0,0-9.16-7.66H562.42a9.32,9.32,0,0,0-9.3,9.3v1.83" transform="translate(-444.37 -1397.21)"/><text class="cls-4" transform="translate(11.91 245.83)">Social Policy, Governance,<tspan x="40.28" y="22" xml:space="preserve"> and Interventions</tspan></text><circle class="cls-5" cx="587.25" cy="1520.95" r="82.84" transform="translate(-1347.84 -536.49) rotate(-45)"/><circle class="cls-1" cx="93.52" cy="112.84" r="5.17"/><path class="cls-1" d="M537.9,1485.22a5.17,5.17,0,1,1-5.17-5.17A5.17,5.17,0,0,1,537.9,1485.22Z" transform="translate(-444.37 -1397.21)"/><path class="cls-1" d="M563.43,1488.92a5.17,5.17,0,1,1-5.17-5.17A5.17,5.17,0,0,1,563.43,1488.92Z" transform="translate(-444.37 -1397.21)"/><path class="cls-1" d="M611.78,1506.16a5.17,5.17,0,1,1-5.17-5.17A5.18,5.18,0,0,1,611.78,1506.16Z" transform="translate(-444.37 -1397.21)"/><path class="cls-1" d="M585.58,1455a5.17,5.17,0,1,1-5.17-5.17A5.18,5.18,0,0,1,585.58,1455Z" transform="translate(-444.37 -1397.21)"/><path class="cls-1" d="M558.26,1468.24a5.17,5.17,0,1,1-5.17-5.17A5.17,5.17,0,0,1,558.26,1468.24Z" transform="translate(-444.37 -1397.21)"/><circle class="cls-1" cx="139.16" cy="81.37" r="5.17"/><circle class="cls-1" cx="161.88" cy="77.67" r="5.17"/><path class="cls-1" d="M578.59,1513.56a5.17,5.17,0,1,1-5.17-5.17A5.16,5.16,0,0,1,578.59,1513.56Z" transform="translate(-444.37 -1397.21)"/><circle class="cls-1" cx="186.78" cy="111.18" r="5.17"/><circle class="cls-1" cx="208.22" cy="118.01" r="5.17"/><circle class="cls-1" cx="189.33" cy="82.84" r="5.17"/><polyline class="cls-6" points="62.15 105.11 93.52 112.84 113.89 91.71 108.71 71.03 103.54 50.81"/><polyline class="cls-7" points="156.71 42.05 149.5 59.6 139.16 81.37 129.05 116.35 162.24 108.94 186.78 111.18 208.22 118.01 224.38 108.85"/><line class="cls-6" x1="170.91" y1="45.76" x2="161.88" y2="77.81"/><polyline class="cls-7" points="129.05 116.35 93.52 112.84 88.35 88.01 76.44 74.25"/><polyline class="cls-6" points="124.96 42.84 136.03 57.74 113.89 91.71 129.05 116.35 189.33 82.84"/><polyline class="cls-6" points="204.62 68.51 189.33 82.84 161.12 77.67 139.16 81.37 162.24 108.94 188.27 54.43"/><polyline class="cls-7" points="189.33 82.84 186.78 111.18 221.66 98.08"/><line class="cls-6" x1="88.35" y1="88.01" x2="108.71" y2="71.03"/><line class="cls-6" x1="139.16" y1="81.37" x2="136.03" y2="57.74"/></g></svg>