<svg id="_2" data-name="2" xmlns="http://www.w3.org/2000/svg" viewBox="0 0 284.61 283.46"><defs><style>.cls-1{fill:#1363a3;}.cls-2,.cls-3,.cls-5{fill:#fff;}.cls-2{stroke:#fff;stroke-width:20px;}.cls-2,.cls-4,.cls-6{stroke-miterlimit:10;}.cls-3{font-size:20px;font-family:HGB7X_CNKI;}.cls-4,.cls-6{fill:none;stroke:#1363a3;}.cls-4{stroke-width:4px;}.cls-6{stroke-width:5px;}</style></defs><title>2</title><g id="_2-2" data-name="2"><rect class="cls-1" x="1.15" width="283.46" height="283.46"/><rect class="cls-2" x="57.84" y="38.69" width="170.08" height="170.08"/><text class="cls-3" transform="translate(30.51 245.83)">Migration, Integration, <tspan x="14.38" y="22">and Global Mobility</tspan></text><path class="cls-1" d="M634.4,1232.51a65.51,65.51,0,0,1-34.24,18.92A87.66,87.66,0,0,0,619,1221.61,61.62,61.62,0,0,1,634.4,1232.51Z" transform="translate(-444.37 -1076.36)"/><path class="cls-1" d="M625.65,1184.08c0,.46,0,.93,0,1.4a100.32,100.32,0,0,1-6.63,36.13,70.58,70.58,0,0,0-31.78-7.41v-30.12Z" transform="translate(-444.37 -1076.36)"/><path class="cls-1" d="M619,1221.61a87.66,87.66,0,0,1-18.88,29.82,65.32,65.32,0,0,1-12.9,1.28V1214.2A70.58,70.58,0,0,1,619,1221.61Z" transform="translate(-444.37 -1076.36)"/><path class="cls-1" d="M587.26,1214.2v38.51a65.63,65.63,0,0,1-12.93-1.29,87.73,87.73,0,0,1-18.86-29.81A70.56,70.56,0,0,1,587.26,1214.2Z" transform="translate(-444.37 -1076.36)"/><path class="cls-1" d="M587.26,1184.08v30.12a70.56,70.56,0,0,0-31.79,7.41,100.32,100.32,0,0,1-6.63-36.13c0-.47,0-.94,0-1.4Z" transform="translate(-444.37 -1076.36)"/><path class="cls-1" d="M555.47,1221.61a87.73,87.73,0,0,0,18.86,29.81,65.43,65.43,0,0,1-34.23-18.91A61.5,61.5,0,0,1,555.47,1221.61Z" transform="translate(-444.37 -1076.36)"/><path class="cls-4" d="M653.23,1184.08c0,.46,0,.93,0,1.4a67.63,67.63,0,0,1-18.85,47,65.12,65.12,0,0,1-94.3,0,67.63,67.63,0,0,1-18.85-47c0-.47,0-.94,0-1.4a67.61,67.61,0,0,1,18.87-45.69,65.09,65.09,0,0,1,47.12-20.15,64.58,64.58,0,0,1,12.9,1.28,65.52,65.52,0,0,1,34.21,18.87A67.65,67.65,0,0,1,653.23,1184.08Z" transform="translate(-444.37 -1076.36)"/><polyline class="cls-4" points="76.88 107.72 76.9 107.72 104.49 107.72 142.88 107.72 181.28 107.72 208.86 107.72 208.88 107.72"/><path class="cls-4" d="M634.57,1232.68l-.17-.17a61.62,61.62,0,0,0-15.36-10.9,71.88,71.88,0,0,0-63.57,0,61.5,61.5,0,0,0-15.37,10.9l-.16.17" transform="translate(-444.37 -1076.36)"/><path class="cls-4" d="M539.94,1138.27l.2.12a86.82,86.82,0,0,0,16.62,7.75,95,95,0,0,0,61,0,87.11,87.11,0,0,0,16.62-7.75l.2-.12" transform="translate(-444.37 -1076.36)"/><polyline class="cls-4" points="142.88 176.35 142.88 137.84 142.88 107.72 142.88 74.8 142.88 41.87"/><path class="cls-4" d="M574.36,1119.49l0,0a87.08,87.08,0,0,0-17.57,26.61,99.61,99.61,0,0,0-7.9,37.94c0,.46,0,.93,0,1.4a100.32,100.32,0,0,0,6.63,36.13,87.73,87.73,0,0,0,18.86,29.81l0,0" transform="translate(-444.37 -1076.36)"/><path class="cls-4" d="M600.14,1119.49l0,0a87.3,87.3,0,0,1,17.59,26.62,99.42,99.42,0,0,1,7.9,37.94c0,.46,0,.93,0,1.4a100.32,100.32,0,0,1-6.63,36.13,87.66,87.66,0,0,1-18.88,29.82l0,0" transform="translate(-444.37 -1076.36)"/><path class="cls-5" d="M648,1255.21,597.39,1227v-20.41c0-5.81-4.43-10.52-9.9-10.52H587c-5.47,0-9.91,4.71-9.91,10.52V1227l-50.56,28.22Z" transform="translate(-444.37 -1076.36)"/><path class="cls-6" d="M553,1253.83c-28.64,2.47-48.56,7.94-48.56,14.3,0,8.67,37.07,15.7,82.81,15.7s82.81-7,82.81-15.7c0-6.36-19.92-11.83-48.56-14.3" transform="translate(-444.37 -1076.36)"/><polygon class="cls-1" points="126.43 163.98 106.38 177.81 128.09 188.85 126.43 163.98"/><polygon class="cls-1" points="159.28 163.98 179.33 177.81 157.62 188.85 159.28 163.98"/></g></svg>