<svg id="_2" data-name="2" xmlns="http://www.w3.org/2000/svg" viewBox="0 0 284.61 283.46"><defs><style>.cls-1{fill:#1363a3;}.cls-2,.cls-3,.cls-5{fill:#fff;}.cls-2{stroke:#fff;stroke-width:20px;}.cls-2,.cls-4,.cls-5{stroke-miterlimit:10;}.cls-3{font-size:20px;font-family:HGB7X_CNKI;}.cls-4{fill:none;}.cls-4,.cls-5{stroke:#1363a3;stroke-width:4px;}</style></defs><title>1</title><g id="_1" data-name="1"><rect class="cls-1" x="1.15" width="283.46" height="283.46"/><rect class="cls-2" x="57.84" y="38.69" width="170.08" height="170.08"/><text class="cls-3" transform="translate(15.4 245.83)">Population Dynamics and<tspan x="13.8" y="22" xml:space="preserve"> Social Transformation</tspan></text><circle class="cls-4" cx="142.9" cy="65.52" r="24.83"/><path class="cls-4" d="M219.93,1247.89v-41.7a27.22,27.22,0,0,1,27.15-27.14h34.46a27.22,27.22,0,0,1,27.14,27.14h0" transform="translate(-121.41 -1076.36)"/><path class="cls-1" d="M225.93,1135.29a19.32,19.32,0,1,0,6.32,23.74,24.63,24.63,0,0,1-6.32-23.74Z" transform="translate(-121.41 -1076.36)"/><path class="cls-1" d="M232.94,1177H206.39a27.22,27.22,0,0,0-27.14,27.15v43.78H205.8v-43.78A27.22,27.22,0,0,1,232.94,1177Z" transform="translate(-121.41 -1076.36)"/><path class="cls-1" d="M302.69,1135.29a19.31,19.31,0,1,1-6.33,23.74,24.61,24.61,0,0,0,6.33-23.74Z" transform="translate(-121.41 -1076.36)"/><path class="cls-1" d="M295.68,1177h26.55a27.22,27.22,0,0,1,27.14,27.15v43.78H322.82v-43.78A27.22,27.22,0,0,0,295.68,1177Z" transform="translate(-121.41 -1076.36)"/><circle class="cls-1" cx="190.18" cy="1267.89" r="11.42" transform="translate(-588.98 -908.96) rotate(-22.34)"/><polyline class="cls-4" points="137.44 161.12 68.77 191.53 142.84 191.53"/><polygon class="cls-1" points="139.08 152.65 138.94 153.1 135.97 160.7 151.83 153.68 155.04 145.58 139.08 152.65"/><path class="cls-1" d="M282.1,1234.71l-8.07-2.88-15.86,7a38.15,38.15,0,0,1,8,2.9Z" transform="translate(-121.41 -1076.36)"/><polygon class="cls-1" points="147.77 198.61 147.47 198.26 141.67 192.51 159.01 192.51 165.22 198.61 147.77 198.61"/><path class="cls-1" d="M286.63,1261l-6.21,5.89H263.07a37.26,37.26,0,0,0,6.16-5.89Z" transform="translate(-121.41 -1076.36)"/><path class="cls-4" d="M286.36,1225.31l13.8-6.11a13,13,0,0,1,18.32,11.92v36.77l-18.59-18.6" transform="translate(-121.41 -1076.36)"/><polygon class="cls-1" points="180 164.43 179.97 164.9 180.01 173.07 167.74 160.8 167.67 152.09 180 164.43"/><path class="cls-1" d="M279.2,1238.33l8.56.22L300,1250.82a37.29,37.29,0,0,0-8.52-.19Z" transform="translate(-121.41 -1076.36)"/><circle class="cls-5" cx="197.07" cy="191.53" r="15.31"/></g></svg>