<svg id="_2" data-name="2" xmlns="http://www.w3.org/2000/svg" viewBox="0 0 607.58 604.32"><defs><style>.cls-1{fill:#1363a3;}.cls-12,.cls-13,.cls-14,.cls-16,.cls-2,.cls-4{fill:#fff;}.cls-10,.cls-11,.cls-12,.cls-13,.cls-2,.cls-8,.cls-9{stroke:#fff;}.cls-10,.cls-11,.cls-12,.cls-13,.cls-15,.cls-16,.cls-2,.cls-3,.cls-5,.cls-6,.cls-7,.cls-8{stroke-miterlimit:10;}.cls-2{stroke-width:20px;}.cls-10,.cls-11,.cls-15,.cls-3,.cls-5,.cls-6,.cls-7,.cls-8,.cls-9{fill:none;}.cls-15,.cls-16,.cls-3,.cls-5,.cls-6,.cls-7{stroke:#1363a3;}.cls-10,.cls-3,.cls-8,.cls-9{stroke-width:3px;}.cls-4{font-size:20px;font-family:HGB7X_CNKI;}.cls-16,.cls-5{stroke-width:4px;}.cls-11,.cls-13,.cls-7{stroke-width:2px;}.cls-10,.cls-9{stroke-linecap:round;}.cls-9{stroke-linejoin:round;}.cls-15{stroke-width:5px;}</style></defs><title>总图</title><g id="_4" data-name="4"><rect class="cls-1" x="324.11" y="320.85" width="283.46" height="283.46"/><rect class="cls-2" x="380.81" y="359.54" width="170.08" height="170.08"/><circle class="cls-1" cx="481.5" cy="454.82" r="12.49"/><path class="cls-1" d="M625.23,1596.33v-36h0a13.7,13.7,0,0,0-13.65-13.66H594.24a13.7,13.7,0,0,0-13.66,13.66v44" transform="translate(-121.41 -1076.36)"/><circle class="cls-3" cx="517.47" cy="469.51" r="8.49"/><path class="cls-3" d="M654,1571.2v-2.5h0a9.31,9.31,0,0,0-9.28-9.28H633a9.3,9.3,0,0,0-9.27,9.28v26.65" transform="translate(-121.41 -1076.36)"/><circle class="cls-3" cx="537.13" cy="1544.06" r="9.98" transform="translate(-668.34 -756) rotate(-22.36)"/><path class="cls-3" d="M555,1597.91v-27h0A10.94,10.94,0,0,0,544.06,1560H530.2a11,11,0,0,0-10.42,7.68" transform="translate(-121.41 -1076.36)"/><circle class="cls-3" cx="568.33" cy="1540.11" r="8.51" transform="translate(-1043.97 -223.41) rotate(-45)"/><path class="cls-3" d="M583.39,1561.37a9.34,9.34,0,0,0-9.16-7.66H562.42a9.32,9.32,0,0,0-9.3,9.3v1.83" transform="translate(-121.41 -1076.36)"/><text class="cls-4" transform="translate(334.87 566.68)">Social Policy, Governance,<tspan x="40.28" y="22" xml:space="preserve"> and Interventions</tspan></text><circle class="cls-5" cx="587.25" cy="1520.95" r="82.84" transform="translate(-1024.88 -215.64) rotate(-45)"/><circle class="cls-1" cx="416.49" cy="433.69" r="5.17"/><path class="cls-1" d="M537.9,1485.22a5.17,5.17,0,1,1-5.17-5.17A5.17,5.17,0,0,1,537.9,1485.22Z" transform="translate(-121.41 -1076.36)"/><path class="cls-1" d="M563.43,1488.92a5.17,5.17,0,1,1-5.17-5.17A5.17,5.17,0,0,1,563.43,1488.92Z" transform="translate(-121.41 -1076.36)"/><path class="cls-1" d="M611.78,1506.16a5.17,5.17,0,1,1-5.17-5.17A5.18,5.18,0,0,1,611.78,1506.16Z" transform="translate(-121.41 -1076.36)"/><path class="cls-1" d="M585.58,1455a5.17,5.17,0,1,1-5.17-5.17A5.18,5.18,0,0,1,585.58,1455Z" transform="translate(-121.41 -1076.36)"/><path class="cls-1" d="M558.26,1468.24a5.17,5.17,0,1,1-5.17-5.17A5.17,5.17,0,0,1,558.26,1468.24Z" transform="translate(-121.41 -1076.36)"/><circle class="cls-1" cx="462.13" cy="402.22" r="5.17"/><circle class="cls-1" cx="484.85" cy="398.52" r="5.17"/><path class="cls-1" d="M578.59,1513.56a5.17,5.17,0,1,1-5.17-5.17A5.16,5.16,0,0,1,578.59,1513.56Z" transform="translate(-121.41 -1076.36)"/><circle class="cls-1" cx="509.74" cy="432.03" r="5.17"/><circle class="cls-1" cx="531.19" cy="438.86" r="5.17"/><circle class="cls-1" cx="512.3" cy="403.69" r="5.17"/><polyline class="cls-6" points="385.11 425.96 416.49 433.69 436.85 412.56 431.68 391.88 426.51 371.67"/><polyline class="cls-7" points="479.68 362.9 472.47 380.45 462.13 402.22 452.02 437.2 485.2 429.79 509.74 432.03 531.19 438.86 547.35 429.7"/><line class="cls-6" x1="493.88" y1="366.61" x2="484.85" y2="398.66"/><polyline class="cls-7" points="452.02 437.2 416.49 433.69 411.32 408.86 399.41 395.1"/><polyline class="cls-6" points="447.92 363.69 459 378.59 436.85 412.56 452.02 437.2 512.3 403.69"/><polyline class="cls-6" points="527.58 389.36 512.3 403.69 484.08 398.52 462.13 402.22 485.2 429.79 511.24 375.28"/><polyline class="cls-7" points="512.3 403.69 509.74 432.03 544.63 418.93"/><line class="cls-6" x1="411.32" y1="408.86" x2="431.68" y2="391.88"/><line class="cls-6" x1="462.13" y1="402.22" x2="459" y2="378.59"/></g><g id="_3" data-name="3"><rect class="cls-1" x="1.15" y="320.85" width="283.46" height="283.46"/><rect class="cls-2" x="57.84" y="359.54" width="170.08" height="170.08"/><circle class="cls-1" cx="200.24" cy="467.5" r="8.15"/><path class="cls-5" d="M247.19,1464a15,15,0,0,0-21.18,0,15,15,0,0,0-21.18,21.18L226,1506.36l21.18-21.18A15,15,0,0,0,247.19,1464Z" transform="translate(-121.41 -1076.36)"/><path class="cls-1" d="M346.8,1466.32v54.17H264.28V1438h54.18A28.43,28.43,0,0,1,346.8,1466.32Z" transform="translate(-121.41 -1076.36)"/><path class="cls-1" d="M264.28,1520.49V1603H210.11a28.43,28.43,0,0,1-28.35-28.34v-54.18Z" transform="translate(-121.41 -1076.36)"/><path class="cls-5" d="M346.8,1520.49v54.18A28.42,28.42,0,0,1,318.46,1603H210.11a28.43,28.43,0,0,1-28.35-28.34V1466.32A28.44,28.44,0,0,1,210.11,1438H318.46a28.43,28.43,0,0,1,28.34,28.35Z" transform="translate(-121.41 -1076.36)"/><polyline class="cls-5" points="60.36 444.12 142.88 444.12 225.4 444.12"/><polyline class="cls-5" points="142.88 361.6 142.88 444.12 142.88 526.64"/><path class="cls-1" d="M336.21,1598.92v-36a8.94,8.94,0,0,0-8.91-8.91H316a8.94,8.94,0,0,0-8.91,8.91v41Z" transform="translate(-121.41 -1076.36)"/><circle class="cls-1" cx="288.05" cy="1560.17" r="8.15" transform="translate(-776.84 -791.71) rotate(-26.03)"/><path class="cls-1" d="M302.62,1603.22v-24a8.94,8.94,0,0,0-8.91-8.91H282.4a8.94,8.94,0,0,0-8.91,8.91v24Z" transform="translate(-121.41 -1076.36)"/><circle class="cls-8" cx="226.01" cy="1543.53" r="14.26" transform="translate(-1061.42 -569.16) rotate(-40.04)"/><line class="cls-9" x1="167.06" y1="389" x2="204.29" y2="389"/><line class="cls-9" x1="170.6" y1="432.43" x2="200.75" y2="432.43"/><line class="cls-10" x1="185.68" y1="377.66" x2="185.68" y2="432.43"/><path class="cls-11" d="M181.77,1572.32h68.78a5.66,5.66,0,0,1,5.67,5.66v7.79H183.77" transform="translate(-121.41 -1076.36)"/><line class="cls-11" x1="60.36" y1="502.68" x2="134.81" y2="502.68"/><line class="cls-11" x1="60.36" y1="488.69" x2="134.81" y2="488.69"/><polygon class="cls-11" points="175.8 407.57 158.32 407.57 167.06 389.9 175.8 407.57"/><path class="cls-12" d="M298.72,1483.93a10.25,10.25,0,0,1-20.5,0" transform="translate(-121.41 -1076.36)"/><polygon class="cls-13" points="213.03 407.57 195.55 407.57 204.29 389.9 213.03 407.57"/><path class="cls-11" d="M336,1483.93a10.26,10.26,0,0,1-20.51,0" transform="translate(-121.41 -1076.36)"/><text class="cls-4" transform="translate(49.99 566.68)">Health, Inequality, <tspan x="34.87" y="22">and Society</tspan></text></g><g id="_2-2" data-name="2"><rect class="cls-1" x="324.11" width="283.46" height="283.46"/><rect class="cls-2" x="380.81" y="38.69" width="170.08" height="170.08"/><text class="cls-4" transform="translate(353.48 245.83)">Migration, Integration, <tspan x="14.38" y="22">and Global Mobility</tspan></text><path class="cls-1" d="M634.4,1232.51a65.51,65.51,0,0,1-34.24,18.92A87.66,87.66,0,0,0,619,1221.61,61.62,61.62,0,0,1,634.4,1232.51Z" transform="translate(-121.41 -1076.36)"/><path class="cls-1" d="M625.65,1184.08c0,.46,0,.93,0,1.4a100.32,100.32,0,0,1-6.63,36.13,70.58,70.58,0,0,0-31.78-7.41v-30.12Z" transform="translate(-121.41 -1076.36)"/><path class="cls-1" d="M619,1221.61a87.66,87.66,0,0,1-18.88,29.82,65.32,65.32,0,0,1-12.9,1.28V1214.2A70.58,70.58,0,0,1,619,1221.61Z" transform="translate(-121.41 -1076.36)"/><path class="cls-1" d="M587.26,1214.2v38.51a65.63,65.63,0,0,1-12.93-1.29,87.73,87.73,0,0,1-18.86-29.81A70.56,70.56,0,0,1,587.26,1214.2Z" transform="translate(-121.41 -1076.36)"/><path class="cls-1" d="M587.26,1184.08v30.12a70.56,70.56,0,0,0-31.79,7.41,100.32,100.32,0,0,1-6.63-36.13c0-.47,0-.94,0-1.4Z" transform="translate(-121.41 -1076.36)"/><path class="cls-1" d="M555.47,1221.61a87.73,87.73,0,0,0,18.86,29.81,65.43,65.43,0,0,1-34.23-18.91A61.5,61.5,0,0,1,555.47,1221.61Z" transform="translate(-121.41 -1076.36)"/><path class="cls-5" d="M653.23,1184.08c0,.46,0,.93,0,1.4a67.63,67.63,0,0,1-18.85,47,65.12,65.12,0,0,1-94.3,0,67.63,67.63,0,0,1-18.85-47c0-.47,0-.94,0-1.4a67.61,67.61,0,0,1,18.87-45.69,65.09,65.09,0,0,1,47.12-20.15,64.58,64.58,0,0,1,12.9,1.28,65.52,65.52,0,0,1,34.21,18.87A67.65,67.65,0,0,1,653.23,1184.08Z" transform="translate(-121.41 -1076.36)"/><polyline class="cls-5" points="399.85 107.72 399.86 107.72 427.45 107.72 465.85 107.72 504.24 107.72 531.83 107.72 531.84 107.72"/><path class="cls-5" d="M634.57,1232.68l-.17-.17a61.62,61.62,0,0,0-15.36-10.9,71.88,71.88,0,0,0-63.57,0,61.5,61.5,0,0,0-15.37,10.9l-.16.17" transform="translate(-121.41 -1076.36)"/><path class="cls-5" d="M539.94,1138.27l.2.12a86.82,86.82,0,0,0,16.62,7.75,95,95,0,0,0,61,0,87.11,87.11,0,0,0,16.62-7.75l.2-.12" transform="translate(-121.41 -1076.36)"/><polyline class="cls-5" points="465.85 176.35 465.85 137.84 465.85 107.72 465.85 74.8 465.85 41.87"/><path class="cls-5" d="M574.36,1119.49l0,0a87.08,87.08,0,0,0-17.57,26.61,99.61,99.61,0,0,0-7.9,37.94c0,.46,0,.93,0,1.4a100.32,100.32,0,0,0,6.63,36.13,87.73,87.73,0,0,0,18.86,29.81l0,0" transform="translate(-121.41 -1076.36)"/><path class="cls-5" d="M600.14,1119.49l0,0a87.3,87.3,0,0,1,17.59,26.62,99.42,99.42,0,0,1,7.9,37.94c0,.46,0,.93,0,1.4a100.32,100.32,0,0,1-6.63,36.13,87.66,87.66,0,0,1-18.88,29.82l0,0" transform="translate(-121.41 -1076.36)"/><path class="cls-14" d="M648,1255.21,597.39,1227v-20.41c0-5.81-4.43-10.52-9.9-10.52H587c-5.47,0-9.91,4.71-9.91,10.52V1227l-50.56,28.22Z" transform="translate(-121.41 -1076.36)"/><path class="cls-15" d="M553,1253.83c-28.64,2.47-48.56,7.94-48.56,14.3,0,8.67,37.07,15.7,82.81,15.7s82.81-7,82.81-15.7c0-6.36-19.92-11.83-48.56-14.3" transform="translate(-121.41 -1076.36)"/><polygon class="cls-1" points="449.39 163.98 429.35 177.81 451.06 188.85 449.39 163.98"/><polygon class="cls-1" points="482.25 163.98 502.29 177.81 480.58 188.85 482.25 163.98"/></g><g id="_1" data-name="1"><rect class="cls-1" x="1.15" width="283.46" height="283.46"/><rect class="cls-2" x="57.84" y="38.69" width="170.08" height="170.08"/><text class="cls-4" transform="translate(15.4 245.83)">Population Dynamics and<tspan x="13.8" y="22" xml:space="preserve"> Social Transformation</tspan></text><circle class="cls-5" cx="142.9" cy="65.52" r="24.83"/><path class="cls-5" d="M219.93,1247.89v-41.7a27.22,27.22,0,0,1,27.15-27.14h34.46a27.22,27.22,0,0,1,27.14,27.14h0" transform="translate(-121.41 -1076.36)"/><path class="cls-1" d="M225.93,1135.29a19.32,19.32,0,1,0,6.32,23.74,24.63,24.63,0,0,1-6.32-23.74Z" transform="translate(-121.41 -1076.36)"/><path class="cls-1" d="M232.94,1177H206.39a27.22,27.22,0,0,0-27.14,27.15v43.78H205.8v-43.78A27.22,27.22,0,0,1,232.94,1177Z" transform="translate(-121.41 -1076.36)"/><path class="cls-1" d="M302.69,1135.29a19.31,19.31,0,1,1-6.33,23.74,24.61,24.61,0,0,0,6.33-23.74Z" transform="translate(-121.41 -1076.36)"/><path class="cls-1" d="M295.68,1177h26.55a27.22,27.22,0,0,1,27.14,27.15v43.78H322.82v-43.78A27.22,27.22,0,0,0,295.68,1177Z" transform="translate(-121.41 -1076.36)"/><circle class="cls-1" cx="190.18" cy="1267.89" r="11.42" transform="translate(-588.98 -908.96) rotate(-22.34)"/><polyline class="cls-5" points="137.44 161.12 68.77 191.53 142.84 191.53"/><polygon class="cls-1" points="139.08 152.65 138.94 153.1 135.97 160.7 151.83 153.68 155.04 145.58 139.08 152.65"/><path class="cls-1" d="M282.1,1234.71l-8.07-2.88-15.86,7a38.15,38.15,0,0,1,8,2.9Z" transform="translate(-121.41 -1076.36)"/><polygon class="cls-1" points="147.77 198.61 147.47 198.26 141.67 192.51 159.01 192.51 165.22 198.61 147.77 198.61"/><path class="cls-1" d="M286.63,1261l-6.21,5.89H263.07a37.26,37.26,0,0,0,6.16-5.89Z" transform="translate(-121.41 -1076.36)"/><path class="cls-5" d="M286.36,1225.31l13.8-6.11a13,13,0,0,1,18.32,11.92v36.77l-18.59-18.6" transform="translate(-121.41 -1076.36)"/><polygon class="cls-1" points="180 164.43 179.97 164.9 180.01 173.07 167.74 160.8 167.67 152.09 180 164.43"/><path class="cls-1" d="M279.2,1238.33l8.56.22L300,1250.82a37.29,37.29,0,0,0-8.52-.19Z" transform="translate(-121.41 -1076.36)"/><circle class="cls-16" cx="197.07" cy="191.53" r="15.31"/></g></svg>