<svg id="_2" data-name="2" xmlns="http://www.w3.org/2000/svg" viewBox="0 0 284.61 283.46"><defs><style>.cls-1{fill:#1363a3;}.cls-10,.cls-2,.cls-8,.cls-9{fill:#fff;}.cls-2,.cls-4,.cls-5,.cls-6,.cls-7,.cls-8,.cls-9{stroke:#fff;}.cls-2,.cls-3,.cls-4,.cls-6,.cls-7,.cls-8,.cls-9{stroke-miterlimit:10;}.cls-2{stroke-width:20px;}.cls-3,.cls-4,.cls-5,.cls-6,.cls-7{fill:none;}.cls-3{stroke:#1363a3;stroke-width:4px;}.cls-4,.cls-5,.cls-6{stroke-width:3px;}.cls-5,.cls-6{stroke-linecap:round;}.cls-5{stroke-linejoin:round;}.cls-7,.cls-9{stroke-width:2px;}.cls-10{font-size:20px;font-family:HGB7X_CNKI;}</style></defs><title>3</title><g id="_3" data-name="3"><rect class="cls-1" x="1.15" width="283.46" height="283.46"/><rect class="cls-2" x="57.84" y="38.69" width="170.08" height="170.08"/><circle class="cls-1" cx="200.24" cy="146.65" r="8.15"/><path class="cls-3" d="M247.19,1464a15,15,0,0,0-21.18,0,15,15,0,0,0-21.18,21.18L226,1506.36l21.18-21.18A15,15,0,0,0,247.19,1464Z" transform="translate(-121.41 -1397.21)"/><path class="cls-1" d="M346.8,1466.32v54.17H264.28V1438h54.18A28.43,28.43,0,0,1,346.8,1466.32Z" transform="translate(-121.41 -1397.21)"/><path class="cls-1" d="M264.28,1520.49V1603H210.11a28.43,28.43,0,0,1-28.35-28.34v-54.18Z" transform="translate(-121.41 -1397.21)"/><path class="cls-3" d="M346.8,1520.49v54.18A28.42,28.42,0,0,1,318.46,1603H210.11a28.43,28.43,0,0,1-28.35-28.34V1466.32A28.44,28.44,0,0,1,210.11,1438H318.46a28.43,28.43,0,0,1,28.34,28.35Z" transform="translate(-121.41 -1397.21)"/><polyline class="cls-3" points="60.36 123.27 142.88 123.27 225.4 123.27"/><polyline class="cls-3" points="142.88 40.75 142.88 123.27 142.88 205.79"/><path class="cls-1" d="M336.21,1598.92v-36a8.94,8.94,0,0,0-8.91-8.91H316a8.94,8.94,0,0,0-8.91,8.91v41Z" transform="translate(-121.41 -1397.21)"/><circle class="cls-1" cx="288.05" cy="1560.17" r="8.15" transform="translate(-776.84 -1112.56) rotate(-26.03)"/><path class="cls-1" d="M302.62,1603.22v-24a8.94,8.94,0,0,0-8.91-8.91H282.4a8.94,8.94,0,0,0-8.91,8.91v24Z" transform="translate(-121.41 -1397.21)"/><circle class="cls-4" cx="226.01" cy="1543.53" r="14.26" transform="translate(-1061.42 -890.01) rotate(-40.04)"/><line class="cls-5" x1="167.06" y1="68.15" x2="204.29" y2="68.15"/><line class="cls-5" x1="170.6" y1="111.57" x2="200.75" y2="111.57"/><line class="cls-6" x1="185.68" y1="56.81" x2="185.68" y2="111.57"/><path class="cls-7" d="M181.77,1572.32h68.78a5.66,5.66,0,0,1,5.67,5.66v7.79H183.77" transform="translate(-121.41 -1397.21)"/><line class="cls-7" x1="60.36" y1="181.83" x2="134.81" y2="181.83"/><line class="cls-7" x1="60.36" y1="167.84" x2="134.81" y2="167.84"/><polygon class="cls-7" points="175.8 86.72 158.32 86.72 167.06 69.05 175.8 86.72"/><path class="cls-8" d="M298.72,1483.93a10.25,10.25,0,0,1-20.5,0" transform="translate(-121.41 -1397.21)"/><polygon class="cls-9" points="213.03 86.72 195.55 86.72 204.29 69.05 213.03 86.72"/><path class="cls-7" d="M336,1483.93a10.26,10.26,0,0,1-20.51,0" transform="translate(-121.41 -1397.21)"/><text class="cls-10" transform="translate(49.99 245.83)">Health, Inequality, <tspan x="34.87" y="22">and Society</tspan></text></g></svg>