<?xml version="1.0" encoding="UTF-8"?>
<!-- Generator: Adobe Illustrator 25.2.0, SVG Export Plug-In . SVG Version: 6.00 Build 0)  -->
<svg xmlns="http://www.w3.org/2000/svg" xmlns:xlink="http://www.w3.org/1999/xlink" version="1.1" id="Layer_1" x="0px" y="0px" viewBox="0 0 560.19 166.61" style="enable-background:new 0 0 560.19 166.61;" xml:space="preserve">
<style type="text/css">
	.st0{fill:#231F20;}
	.st1{fill:#AE3564;}
	.st2{fill:#14BBBB;}
	.st3{fill:#8DC63F;}
	.st4{fill:#888A8C;}
	.st5{fill:#005793;}
	.st6{fill:#298841;}
	.st7{fill:#414042;}
	.st8{fill:#BDBEC0;}
	.st9{fill:#595A5C;}
	.st10{fill:#939598;}
	.st11{fill:#6F2A4D;}
	.st12{fill:url(#SVGID_1_);}
	.st13{fill:url(#SVGID_2_);}
	.st14{fill:url(#SVGID_3_);}
	.st15{fill:url(#SVGID_4_);}
	.st16{fill:url(#SVGID_5_);}
	.st17{fill:url(#SVGID_6_);}
	.st18{fill:url(#SVGID_7_);}
	.st19{fill:url(#SVGID_8_);}
	.st20{fill:url(#SVGID_9_);}
	.st21{fill:url(#SVGID_10_);}
	.st22{fill:url(#SVGID_11_);}
	.st23{fill:url(#SVGID_12_);}
	.st24{fill:url(#SVGID_13_);}
	.st25{fill:url(#SVGID_14_);}
	.st26{fill:url(#SVGID_15_);}
	.st27{fill:url(#SVGID_16_);}
	.st28{fill:url(#SVGID_17_);}
	.st29{fill:url(#SVGID_18_);}
	.st30{fill:url(#SVGID_19_);}
	.st31{fill:url(#SVGID_20_);}
	.st32{fill:url(#SVGID_21_);}
	.st33{fill:url(#SVGID_22_);}
	.st34{fill:url(#SVGID_23_);}
	.st35{fill:url(#SVGID_24_);}
	.st36{fill:url(#SVGID_25_);}
	.st37{fill:url(#SVGID_26_);}
	.st38{fill:url(#SVGID_27_);}
	.st39{fill:url(#SVGID_28_);}
	.st40{fill:url(#SVGID_29_);}
	.st41{fill:url(#SVGID_30_);}
	.st42{fill:url(#SVGID_31_);}
	.st43{fill:url(#SVGID_32_);}
	.st44{fill:url(#SVGID_33_);}
	.st45{fill:url(#SVGID_34_);}
	.st46{fill:url(#SVGID_35_);}
	.st47{fill:url(#SVGID_36_);}
	.st48{fill:url(#SVGID_37_);}
	.st49{fill:url(#SVGID_38_);}
	.st50{fill:url(#SVGID_39_);}
	.st51{fill:url(#SVGID_40_);}
	.st52{fill:url(#SVGID_41_);}
	.st53{fill:url(#SVGID_42_);}
	.st54{fill:url(#SVGID_43_);}
	.st55{fill:url(#SVGID_44_);}
	.st56{fill:url(#SVGID_45_);}
	.st57{fill:url(#SVGID_46_);}
	.st58{fill:url(#SVGID_47_);}
	.st59{fill:url(#SVGID_48_);}
	.st60{fill:url(#SVGID_49_);}
	.st61{fill:url(#SVGID_50_);}
	.st62{fill:url(#SVGID_51_);}
	.st63{fill:url(#SVGID_52_);}
	.st64{fill:url(#SVGID_53_);}
	.st65{fill:url(#SVGID_54_);}
	.st66{fill:url(#SVGID_55_);}
	.st67{fill:url(#SVGID_56_);}
	.st68{fill:url(#SVGID_57_);}
	.st69{fill:url(#SVGID_58_);}
	.st70{fill:url(#SVGID_59_);}
	.st71{fill:url(#SVGID_60_);}
	.st72{fill:url(#SVGID_61_);}
	.st73{fill:url(#SVGID_62_);}
	.st74{fill:url(#SVGID_63_);}
	.st75{fill:url(#SVGID_64_);}
	.st76{fill:#757576;}
	.st77{fill:#7E8082;}
	.st78{fill:#6E6F72;}
</style>
<g>
	<linearGradient id="SVGID_1_" gradientUnits="userSpaceOnUse" x1="438.6102" y1="50.6114" x2="497.1978" y2="78.9221">
		<stop offset="0" style="stop-color:#414042"></stop>
		<stop offset="0.0184" style="stop-color:#444345"></stop>
		<stop offset="0.2481" style="stop-color:#616264"></stop>
		<stop offset="0.4722" style="stop-color:#77787A"></stop>
		<stop offset="0.6862" style="stop-color:#848587"></stop>
		<stop offset="0.8794" style="stop-color:#888A8C"></stop>
	</linearGradient>
	<path class="st12" d="M435.44,32.69h29.62l25.31,31.6c4.31,5.29,7.33,11.76,7.33,11.76h0.57c0,0-1.15-6.9-1.15-11.76v-31.6h30.06   v77.11h-30.2l-25.45-33.11c-3.74-4.64-7.33-11.65-7.33-11.65h-0.57c0,0,1.15,6.79,1.15,11.65v33.11h-29.34V32.69z"></path>
	<g>
		
			<linearGradient id="SVGID_2_" gradientUnits="userSpaceOnUse" x1="-4467.5112" y1="3503.7688" x2="-4436.2178" y2="3457.333" gradientTransform="matrix(0.7071 0.7071 -0.7071 0.7071 5676.1787 803.3929)">
			<stop offset="0" style="stop-color:#278842"></stop>
			<stop offset="0.0463" style="stop-color:#389241"></stop>
			<stop offset="0.1481" style="stop-color:#56A540"></stop>
			<stop offset="0.2549" style="stop-color:#6EB440"></stop>
			<stop offset="0.3676" style="stop-color:#7FBE3F"></stop>
			<stop offset="0.4901" style="stop-color:#8AC43F"></stop>
			<stop offset="0.6403" style="stop-color:#8DC63F"></stop>
		</linearGradient>
		<circle class="st13" cx="46.2" cy="120.65" r="13.05"></circle>
		<g>
			
				<linearGradient id="SVGID_3_" gradientUnits="userSpaceOnUse" x1="-4498.8848" y1="3482.626" x2="-4467.5908" y2="3436.1902" gradientTransform="matrix(0.7071 0.7071 -0.7071 0.7071 5676.1787 803.3929)">
				<stop offset="0" style="stop-color:#278842"></stop>
				<stop offset="0.0463" style="stop-color:#389241"></stop>
				<stop offset="0.1481" style="stop-color:#56A540"></stop>
				<stop offset="0.2549" style="stop-color:#6EB440"></stop>
				<stop offset="0.3676" style="stop-color:#7FBE3F"></stop>
				<stop offset="0.4901" style="stop-color:#8AC43F"></stop>
				<stop offset="0.6403" style="stop-color:#8DC63F"></stop>
			</linearGradient>
			<path class="st14" d="M67.9,80.62c1.02-0.9,2.08-1.69,3.18-2.36c1.07-0.66,1.06-1.99,0.34-2.72c-0.31-0.31-0.75-0.51-1.29-0.5     c-1.56,0.04-3.14,0.25-4.72,0.58C65.88,77.3,66.72,79.01,67.9,80.62z"></path>
			
				<linearGradient id="SVGID_4_" gradientUnits="userSpaceOnUse" x1="-4477.8232" y1="3496.8193" x2="-4446.5298" y2="3450.3835" gradientTransform="matrix(0.7071 0.7071 -0.7071 0.7071 5676.1787 803.3929)">
				<stop offset="0" style="stop-color:#278842"></stop>
				<stop offset="0.0463" style="stop-color:#389241"></stop>
				<stop offset="0.1481" style="stop-color:#56A540"></stop>
				<stop offset="0.2549" style="stop-color:#6EB440"></stop>
				<stop offset="0.3676" style="stop-color:#7FBE3F"></stop>
				<stop offset="0.4901" style="stop-color:#8AC43F"></stop>
				<stop offset="0.6403" style="stop-color:#8DC63F"></stop>
			</linearGradient>
			<path class="st15" d="M63.98,102.89c-0.01-0.01-0.02-0.02-0.03-0.03c-2.17-2.19-3.18-5.12-3.13-8.29     c-4.68-1.61-9.09-4.34-12.82-7.94C44,91.7,41.82,97.61,41.62,103.3c5.98-1.57,12.62-0.03,17.29,4.66     c0.01,0.01,0.03,0.03,0.04,0.05c4.64,4.68,6.15,11.3,4.58,17.26c6.76-0.23,13.85-3.21,19.46-8.81     c5.66-5.65,8.66-12.82,8.85-19.65c0.01-0.54-0.18-0.97-0.49-1.28c-0.72-0.73-2.07-0.75-2.73,0.33c-0.89,1.46-2,2.86-3.31,4.18     C78.52,106.81,69.15,108.07,63.98,102.89z"></path>
		</g>
	</g>
	<g>
		
			<linearGradient id="SVGID_5_" gradientUnits="userSpaceOnUse" x1="-4486.4751" y1="3403.3499" x2="-4532.9106" y2="3468.4609" gradientTransform="matrix(0.7071 0.7071 -0.7071 0.7071 5676.1787 803.3929)">
			<stop offset="0" style="stop-color:#414042"></stop>
			<stop offset="0.0184" style="stop-color:#444345"></stop>
			<stop offset="0.2481" style="stop-color:#616264"></stop>
			<stop offset="0.4722" style="stop-color:#77787A"></stop>
			<stop offset="0.6862" style="stop-color:#848587"></stop>
			<stop offset="0.8794" style="stop-color:#888A8C"></stop>
		</linearGradient>
		<circle class="st16" cx="46.2" cy="46.05" r="13.05"></circle>
		<g>
			
				<linearGradient id="SVGID_6_" gradientUnits="userSpaceOnUse" x1="-4462.4497" y1="3420.4841" x2="-4508.8857" y2="3485.595" gradientTransform="matrix(0.7071 0.7071 -0.7071 0.7071 5676.1787 803.3929)">
				<stop offset="0" style="stop-color:#414042"></stop>
				<stop offset="0.0184" style="stop-color:#444345"></stop>
				<stop offset="0.2481" style="stop-color:#616264"></stop>
				<stop offset="0.4722" style="stop-color:#77787A"></stop>
				<stop offset="0.6862" style="stop-color:#848587"></stop>
				<stop offset="0.8794" style="stop-color:#888A8C"></stop>
			</linearGradient>
			<path class="st17" d="M91.81,69.98c-0.04-1.56-0.25-3.14-0.58-4.72c-1.68,0.48-3.39,1.32-5,2.49c0.9,1.02,1.69,2.08,2.36,3.18     c0.66,1.07,1.99,1.06,2.72,0.34C91.62,70.96,91.82,70.52,91.81,69.98z"></path>
			
				<linearGradient id="SVGID_7_" gradientUnits="userSpaceOnUse" x1="-4467.2017" y1="3417.095" x2="-4513.6377" y2="3482.2061" gradientTransform="matrix(0.7071 0.7071 -0.7071 0.7071 5676.1787 803.3929)">
				<stop offset="0" style="stop-color:#414042"></stop>
				<stop offset="0.0184" style="stop-color:#444345"></stop>
				<stop offset="0.2481" style="stop-color:#616264"></stop>
				<stop offset="0.4722" style="stop-color:#77787A"></stop>
				<stop offset="0.6862" style="stop-color:#848587"></stop>
				<stop offset="0.8794" style="stop-color:#888A8C"></stop>
			</linearGradient>
			<path class="st18" d="M70.04,91.7c0.54,0.01,0.97-0.18,1.28-0.49c0.73-0.72,0.75-2.07-0.33-2.73c-1.46-0.89-2.86-2-4.18-3.31     c-6.78-6.8-8.04-16.17-2.87-21.33c0.01-0.01,0.02-0.02,0.03-0.03c2.19-2.17,5.12-3.18,8.29-3.13c1.61-4.68,4.34-9.09,7.94-12.82     c-5.07-4.02-10.97-6.19-16.66-6.4c1.57,5.98,0.03,12.62-4.66,17.29c-0.01,0.01-0.03,0.03-0.05,0.04     c-4.68,4.64-11.3,6.15-17.26,4.58c0.23,6.76,3.21,13.85,8.81,19.46C56.05,88.51,63.22,91.51,70.04,91.7z"></path>
		</g>
	</g>
	<g>
		
			<linearGradient id="SVGID_8_" gradientUnits="userSpaceOnUse" x1="-4476.8154" y1="3392.7319" x2="-4450.7114" y2="3392.7319" gradientTransform="matrix(0.7071 0.7071 -0.7071 0.7071 5676.1787 803.3929)">
			<stop offset="0" style="stop-color:#6E294C"></stop>
			<stop offset="0.0582" style="stop-color:#752B4F"></stop>
			<stop offset="0.3417" style="stop-color:#94305B"></stop>
			<stop offset="0.5821" style="stop-color:#A73462"></stop>
			<stop offset="0.7493" style="stop-color:#AE3564"></stop>
		</linearGradient>
		<circle class="st19" cx="120.8" cy="46.06" r="13.05"></circle>
		<g>
			
				<linearGradient id="SVGID_9_" gradientUnits="userSpaceOnUse" x1="-4451.439" y1="3439.4192" x2="-4445.5073" y2="3439.4192" gradientTransform="matrix(0.7071 0.7071 -0.7071 0.7071 5676.1787 803.3929)">
				<stop offset="0" style="stop-color:#6E294C"></stop>
				<stop offset="0.0582" style="stop-color:#752B4F"></stop>
				<stop offset="0.3417" style="stop-color:#94305B"></stop>
				<stop offset="0.5821" style="stop-color:#A73462"></stop>
				<stop offset="0.7493" style="stop-color:#AE3564"></stop>
			</linearGradient>
			<path class="st20" d="M99.1,86.09c-1.02,0.9-2.08,1.69-3.18,2.36c-1.07,0.66-1.06,1.99-0.34,2.72c0.31,0.31,0.75,0.51,1.29,0.5     c1.56-0.04,3.14-0.25,4.72-0.58C101.11,89.41,100.27,87.7,99.1,86.09z"></path>
			
				<linearGradient id="SVGID_10_" gradientUnits="userSpaceOnUse" x1="-4486.8198" y1="3422.0811" x2="-4440.9985" y2="3422.0811" gradientTransform="matrix(0.7071 0.7071 -0.7071 0.7071 5676.1787 803.3929)">
				<stop offset="0" style="stop-color:#6E294C"></stop>
				<stop offset="0.0582" style="stop-color:#752B4F"></stop>
				<stop offset="0.3417" style="stop-color:#94305B"></stop>
				<stop offset="0.5821" style="stop-color:#A73462"></stop>
				<stop offset="0.7493" style="stop-color:#AE3564"></stop>
			</linearGradient>
			<path class="st21" d="M103.01,63.81c0.01,0.01,0.02,0.02,0.03,0.03c2.17,2.19,3.18,5.12,3.13,8.29     c4.68,1.61,9.09,4.34,12.82,7.94c4.02-5.07,6.19-10.97,6.39-16.66c-5.98,1.57-12.62,0.03-17.29-4.66     c-0.01-0.01-0.03-0.03-0.04-0.05c-4.64-4.68-6.15-11.3-4.58-17.26C96.69,41.67,89.6,44.66,84,50.25     c-5.66,5.65-8.66,12.82-8.85,19.65c-0.01,0.54,0.18,0.97,0.49,1.28c0.72,0.73,2.07,0.75,2.73-0.33c0.89-1.46,2-2.86,3.31-4.18     C88.48,59.89,97.85,58.64,103.01,63.81z"></path>
		</g>
	</g>
	<g>
		
			<linearGradient id="SVGID_11_" gradientUnits="userSpaceOnUse" x1="-4423.936" y1="3480.1299" x2="-4403.2417" y2="3424.6089" gradientTransform="matrix(0.7071 0.7071 -0.7071 0.7071 5676.1787 803.3929)">
			<stop offset="0" style="stop-color:#005793"></stop>
			<stop offset="0.1396" style="stop-color:#036799"></stop>
			<stop offset="0.4092" style="stop-color:#0B8FA9"></stop>
			<stop offset="0.6662" style="stop-color:#14BBBB"></stop>
		</linearGradient>
		<circle class="st22" cx="120.79" cy="120.65" r="13.05"></circle>
		<g>
			
				<linearGradient id="SVGID_12_" gradientUnits="userSpaceOnUse" x1="-4460.3916" y1="3466.5417" x2="-4439.6973" y2="3411.0208" gradientTransform="matrix(0.7071 0.7071 -0.7071 0.7071 5676.1787 803.3929)">
				<stop offset="0" style="stop-color:#005793"></stop>
				<stop offset="0.1396" style="stop-color:#036799"></stop>
				<stop offset="0.4092" style="stop-color:#0B8FA9"></stop>
				<stop offset="0.6662" style="stop-color:#14BBBB"></stop>
			</linearGradient>
			<path class="st23" d="M75.76,101.45c1.68-0.48,3.39-1.32,5-2.49c-0.9-1.02-1.69-2.08-2.36-3.18c-0.66-1.07-1.99-1.06-2.72-0.34     c-0.31,0.31-0.51,0.75-0.5,1.29C75.23,98.29,75.43,99.87,75.76,101.45z"></path>
			
				<linearGradient id="SVGID_13_" gradientUnits="userSpaceOnUse" x1="-4449.5479" y1="3470.5837" x2="-4428.8535" y2="3415.0627" gradientTransform="matrix(0.7071 0.7071 -0.7071 0.7071 5676.1787 803.3929)">
				<stop offset="0" style="stop-color:#005793"></stop>
				<stop offset="0.1396" style="stop-color:#036799"></stop>
				<stop offset="0.4092" style="stop-color:#0B8FA9"></stop>
				<stop offset="0.6662" style="stop-color:#14BBBB"></stop>
			</linearGradient>
			<path class="st24" d="M108.1,107.94c0.01-0.01,0.03-0.03,0.05-0.04c4.68-4.64,11.3-6.15,17.26-4.58     c-0.23-6.76-3.21-13.85-8.81-19.46c-5.65-5.66-12.82-8.66-19.65-8.85c-0.54-0.01-0.97,0.18-1.28,0.49     c-0.73,0.72-0.75,2.07,0.33,2.73c1.46,0.89,2.86,2,4.18,3.31c6.78,6.8,8.04,16.17,2.87,21.33c-0.01,0.01-0.02,0.02-0.03,0.03     c-2.19,2.17-5.12,3.18-8.29,3.13c-1.61,4.68-4.34,9.09-7.94,12.82c5.07,4.02,10.97,6.19,16.66,6.39     C101.87,119.25,103.42,112.61,108.1,107.94z"></path>
		</g>
	</g>
	<linearGradient id="SVGID_14_" gradientUnits="userSpaceOnUse" x1="344.2529" y1="40.8186" x2="455.5299" y2="111.5954">
		<stop offset="0" style="stop-color:#278842"></stop>
		<stop offset="0.0463" style="stop-color:#389241"></stop>
		<stop offset="0.1481" style="stop-color:#56A540"></stop>
		<stop offset="0.2549" style="stop-color:#6EB440"></stop>
		<stop offset="0.3676" style="stop-color:#7FBE3F"></stop>
		<stop offset="0.4901" style="stop-color:#8AC43F"></stop>
		<stop offset="0.6403" style="stop-color:#8DC63F"></stop>
	</linearGradient>
	<path class="st25" d="M360.34,32.69h45.79c23.12,0,38.87,9.17,38.87,25.34c0,8.84-6.18,17.15-16.05,21.57v0.22   c0.29,0.43,2.36,2.37,4.56,5.29l18.4,24.7h-34.6l-16.34-24.16h-8.83v24.16h-31.8V32.69z M401.56,67.63c7.07,0,11.19-3.13,11.19-8.2   c0-4.85-2.8-7.98-12.37-7.98h-8.24v16.18H401.56z"></path>
	<linearGradient id="SVGID_15_" gradientUnits="userSpaceOnUse" x1="284.9174" y1="46.5037" x2="356.8739" y2="82.6786">
		<stop offset="0" style="stop-color:#005793"></stop>
		<stop offset="0.1396" style="stop-color:#036799"></stop>
		<stop offset="0.4092" style="stop-color:#0B8FA9"></stop>
		<stop offset="0.6662" style="stop-color:#14BBBB"></stop>
	</linearGradient>
	<path class="st26" d="M300.55,32.69h67.16v18.55h-36.1v13.05h21.23v18.23h-21.23v27.29h-31.06V32.69z"></path>
	<linearGradient id="SVGID_16_" gradientUnits="userSpaceOnUse" x1="177.0499" y1="43.3682" x2="322.724" y2="100.2983">
		<stop offset="0" style="stop-color:#6E294C"></stop>
		<stop offset="0.0582" style="stop-color:#752B4F"></stop>
		<stop offset="0.3417" style="stop-color:#94305B"></stop>
		<stop offset="0.5821" style="stop-color:#A73462"></stop>
		<stop offset="0.7493" style="stop-color:#AE3564"></stop>
	</linearGradient>
	<path class="st27" d="M162.96,32.69h30.63l10.21,42.28c1.15,4.85,1.73,9.92,1.73,9.92h0.58c0,0,0.43-5.39,2.01-9.92l14.09-42.28   h27.18l13.37,42.28c1.58,4.85,2.16,9.92,2.16,9.92h0.57c0,0,0.29-5.18,1.58-9.92l11.65-42.28h30.06l-26.03,77.11h-32.79   l-11.94-37.32c-1.58-4.85-2.3-10.68-2.3-10.68h-0.43c0,0-0.72,5.5-2.3,10.78l-11.94,37.21h-33.08L162.96,32.69z"></path>
	<g>
		<path class="st76" d="M163.22,119.79h4.15l1.38,7.64c0.16,0.88,0.23,1.79,0.23,1.79h0.08c0,0,0.06-0.97,0.27-1.79l1.91-7.64h3.69    l1.81,7.64c0.21,0.88,0.29,1.79,0.29,1.79h0.08c0,0,0.04-0.94,0.21-1.79l1.58-7.64H183l-3.53,13.94h-4.45l-1.62-6.75    c-0.21-0.88-0.31-1.93-0.31-1.93h-0.06c0,0-0.1,0.99-0.31,1.95l-1.62,6.73h-4.48L163.22,119.79z"></path>
		<path class="st76" d="M188.37,123.45c3.26,0,5.79,2.01,5.79,5.28c0,3.26-2.54,5.23-5.77,5.23c-3.26,0-5.79-1.97-5.79-5.23    C182.6,125.46,185.14,123.45,188.37,123.45z M188.39,130.79c0.96,0,1.72-0.74,1.72-2.05c0-1.33-0.76-2.11-1.72-2.11    c-0.98,0-1.74,0.78-1.74,2.11C186.66,130.05,187.42,130.79,188.39,130.79z"></path>
		<path class="st76" d="M195.49,123.69h3.86v1.46c0,0.33-0.06,0.7-0.06,0.7h0.06c0.37-1.23,1.54-2.34,2.91-2.34    c0.23,0,0.43,0.04,0.43,0.04v3.92c0,0-0.29-0.06-0.68-0.06c-0.9,0-1.83,0.33-2.22,1.35c-0.16,0.35-0.21,0.74-0.21,1.21v3.76h-4.08    V123.69z"></path>
		<path class="st76" d="M203.99,119.79h4.08v7.02h0.7l1.72-3.12h4.29l-2.75,4.56v0.04l3.08,5.44h-4.39l-1.87-3.71h-0.78v3.71h-4.08    V119.79z"></path>
		<path class="st76" d="M224.95,127.47h0.08v-0.18c0-0.64-0.47-0.9-1.25-0.9c-1.33,0-2.73,0.86-2.73,0.86l-1.15-2.63    c0,0,1.72-1.17,4.54-1.17c2.94,0,4.66,1.4,4.66,4v6.28h-3.73v-0.6c0-0.27,0.04-0.57,0.04-0.57h-0.04c0,0-0.76,1.4-2.75,1.4    c-1.7,0-3.37-1.07-3.37-3.16C219.25,127.69,223.39,127.47,224.95,127.47z M223.82,131.29c0.76,0,1.31-0.76,1.31-1.46v-0.33h-0.25    c-0.9,0-1.85,0.29-1.85,1.05C223.02,131,223.29,131.29,223.82,131.29z"></path>
		<path class="st76" d="M230.83,123.69h3.86v0.68c0,0.33-0.04,0.68-0.04,0.68h0.04c0.43-0.7,1.38-1.6,3.08-1.6    c1.97,0,3.51,0.92,3.51,3.67v6.61h-4.08v-5.75c0-0.74-0.25-1.03-0.8-1.03c-1.07,0-1.5,1.03-1.5,1.91v4.88h-4.08V123.69z"></path>
		<path class="st76" d="M247.04,123.45c1.83,0,2.46,0.94,2.46,0.94h0.04c0,0-0.04-0.27-0.04-0.64v-3.96h4.08v13.94h-3.8v-0.55    c0-0.31,0.02-0.57,0.02-0.57h-0.04c0,0-0.86,1.35-2.75,1.35c-2.69,0-4.41-2.11-4.41-5.27    C242.59,125.56,244.4,123.45,247.04,123.45z M248.17,130.81c0.82,0,1.42-0.74,1.42-2.09c0-1.17-0.51-2.05-1.44-2.05    c-0.86,0-1.46,0.78-1.46,2.05C246.68,130.03,247.27,130.81,248.17,130.81z"></path>
		<path class="st76" d="M259.75,119.79h9.11v3.35h-4.89v2.36h4.02v3.3h-4.02v4.93h-4.21V119.79z"></path>
		<path class="st76" d="M274.37,127.47h0.08v-0.18c0-0.64-0.47-0.9-1.25-0.9c-1.33,0-2.73,0.86-2.73,0.86l-1.15-2.63    c0,0,1.72-1.17,4.54-1.17c2.94,0,4.66,1.4,4.66,4v6.28h-3.72v-0.6c0-0.27,0.04-0.57,0.04-0.57h-0.04c0,0-0.76,1.4-2.75,1.4    c-1.7,0-3.37-1.07-3.37-3.16C268.67,127.69,272.81,127.47,274.37,127.47z M273.24,131.29c0.76,0,1.31-0.76,1.31-1.46v-0.33h-0.25    c-0.9,0-1.85,0.29-1.85,1.05C272.44,131,272.71,131.29,273.24,131.29z"></path>
		<path class="st76" d="M280.25,123.69h3.86v0.78c0,0.33-0.04,0.68-0.04,0.68h0.04c0.43-0.7,1.38-1.7,2.96-1.7    c1.31,0,2.4,0.51,2.93,1.68h0.06c0.49-0.78,1.58-1.68,3.2-1.68c1.89,0,3.37,0.96,3.37,3.67v6.61h-4.08v-5.77    c0-0.64-0.14-1.01-0.64-1.01c-0.68,0-1.07,0.49-1.25,1.19c-0.1,0.31-0.12,0.7-0.12,1.03v4.56h-4.21v-5.77    c0-0.64-0.14-1.01-0.64-1.01c-0.7,0-1.09,0.51-1.27,1.21c-0.08,0.31-0.1,0.68-0.1,1.01v4.56h-4.08V123.69z"></path>
		<path class="st76" d="M298.39,123.69h4.08v10.04h-4.08V123.69z M298.43,119.46h4v2.96h-4V119.46z"></path>
		<path class="st76" d="M304.2,119.79h4.08v9.5c0,0.96,0.18,1.25,0.84,1.25c0.19,0,0.41-0.04,0.41-0.04v3.26c0,0-0.6,0.08-1.35,0.08    c-2.01,0-3.98-0.62-3.98-4V119.79z"></path>
		<path class="st76" d="M310.98,134.35c0,0,0.58,0.41,1.17,0.41c0.53,0,1.07-0.16,1.46-1.07l-4.21-10h4.39l1.21,4.25    c0.18,0.66,0.35,1.74,0.35,1.74h0.08c0,0,0.18-1.11,0.31-1.72l0.98-4.27h4.25l-3.9,10.92c-0.9,2.42-2.75,3.32-4.58,3.32    c-1.54,0-2.73-0.76-2.73-0.76L310.98,134.35z"></path>
		<path class="st76" d="M325.6,119.79h6.06c3.06,0,5.15,1.66,5.15,4.58c0,1.6-0.82,3.1-2.13,3.9v0.04c0.04,0.08,0.31,0.43,0.6,0.96    l2.44,4.47h-4.58l-2.16-4.37h-1.17v4.37h-4.21V119.79z M331.06,126.11c0.94,0,1.48-0.57,1.48-1.48c0-0.88-0.37-1.44-1.64-1.44    h-1.09v2.92H331.06z"></path>
		<path class="st76" d="M343.25,123.45c3.2,0,4.8,2.07,4.8,4.68c0,0.45-0.08,1.25-0.08,1.25h-6.08c0.16,1.11,0.99,1.56,2.09,1.56    c1.58,0,2.71-0.92,2.71-0.92l1.35,2.59c0,0-1.54,1.35-4.39,1.35c-4.02,0-5.85-2.59-5.85-5.27    C337.79,125.77,339.8,123.45,343.25,123.45z M344.38,127.33c-0.02-0.82-0.51-1.33-1.15-1.33c-0.74,0-1.17,0.53-1.29,1.33H344.38z"></path>
		<path class="st76" d="M350.15,130.03c0,0,1.36,0.99,2.94,0.99c0.55,0,0.78-0.14,0.78-0.39c0-0.37-0.33-0.43-1.13-0.64    c-1.35-0.31-3.65-0.98-3.65-3.33c0-2.09,1.87-3.2,4.45-3.2c2.4,0,3.74,0.94,3.74,0.94l-1.01,2.77c0,0-1.21-0.76-2.75-0.76    c-0.43,0-0.82,0.06-0.82,0.37c0,0.33,0.35,0.37,1.17,0.6c1.66,0.41,3.61,1.09,3.61,3.24c0,1.91-1.66,3.35-4.43,3.35    c-2.57,0-4.19-1.23-4.19-1.23L350.15,130.03z"></path>
		<path class="st76" d="M363.76,123.45c3.2,0,4.8,2.07,4.8,4.68c0,0.45-0.08,1.25-0.08,1.25h-6.08c0.16,1.11,0.99,1.56,2.09,1.56    c1.58,0,2.71-0.92,2.71-0.92l1.35,2.59c0,0-1.54,1.35-4.39,1.35c-4.02,0-5.85-2.59-5.85-5.27    C358.3,125.77,360.31,123.45,363.76,123.45z M364.89,127.33c-0.02-0.82-0.51-1.33-1.15-1.33c-0.74,0-1.17,0.53-1.29,1.33H364.89z"></path>
		<path class="st76" d="M374.99,127.47h0.08v-0.18c0-0.64-0.47-0.9-1.25-0.9c-1.33,0-2.73,0.86-2.73,0.86l-1.15-2.63    c0,0,1.72-1.17,4.54-1.17c2.94,0,4.66,1.4,4.66,4v6.28h-3.72v-0.6c0-0.27,0.04-0.57,0.04-0.57h-0.04c0,0-0.76,1.4-2.75,1.4    c-1.7,0-3.37-1.07-3.37-3.16C369.29,127.69,373.43,127.47,374.99,127.47z M373.86,131.29c0.76,0,1.31-0.76,1.31-1.46v-0.33h-0.25    c-0.9,0-1.85,0.29-1.85,1.05C373.06,131,373.33,131.29,373.86,131.29z"></path>
		<path class="st76" d="M380.87,123.69h3.86v1.46c0,0.33-0.06,0.7-0.06,0.7h0.06c0.37-1.23,1.54-2.34,2.91-2.34    c0.23,0,0.43,0.04,0.43,0.04v3.92c0,0-0.29-0.06-0.68-0.06c-0.9,0-1.83,0.33-2.22,1.35c-0.16,0.35-0.21,0.74-0.21,1.21v3.76h-4.08    V123.69z"></path>
		<path class="st76" d="M394.6,123.45c2.94,0,4.25,1.5,4.25,1.5l-1.7,2.69c-0.23-0.21-0.99-0.92-2.2-0.92    c-1.42,0-2.05,0.94-2.05,1.93c0,1.03,0.68,2.03,2.11,2.03c1.19,0,2.24-0.84,2.5-1.07l1.46,2.79c0,0-1.33,1.56-4.33,1.56    c-3.9,0-5.85-2.55-5.85-5.27C388.79,126.05,390.7,123.45,394.6,123.45z"></path>
		<path class="st76" d="M400.06,119.79h4v4.35c0,0.43-0.04,0.8-0.04,0.8h0.04c0.47-0.8,1.54-1.48,2.96-1.48    c1.97,0,3.51,0.92,3.51,3.67v6.61h-4.08v-5.75c0-0.74-0.25-1.03-0.8-1.03c-0.7,0-1.15,0.41-1.37,1.01    c-0.12,0.31-0.16,0.66-0.16,1.01v4.76h-4.08V119.79z"></path>
		<path class="st76" d="M417.23,123.45c3.2,0,4.8,2.07,4.8,4.68c0,0.45-0.08,1.25-0.08,1.25h-6.08c0.16,1.11,0.99,1.56,2.09,1.56    c1.58,0,2.71-0.92,2.71-0.92l1.35,2.59c0,0-1.54,1.35-4.39,1.35c-4.02,0-5.85-2.59-5.85-5.27    C411.77,125.77,413.78,123.45,417.23,123.45z M418.37,127.33c-0.02-0.82-0.51-1.33-1.15-1.33c-0.74,0-1.17,0.53-1.29,1.33H418.37z    "></path>
		<path class="st76" d="M423.41,123.69h3.86v1.46c0,0.33-0.06,0.7-0.06,0.7h0.06c0.37-1.23,1.54-2.34,2.91-2.34    c0.23,0,0.43,0.04,0.43,0.04v3.92c0,0-0.29-0.06-0.68-0.06c-0.9,0-1.83,0.33-2.22,1.35c-0.16,0.35-0.21,0.74-0.21,1.21v3.76h-4.08    V123.69z"></path>
		<path class="st76" d="M432.63,130.03c0,0,1.37,0.99,2.95,0.99c0.55,0,0.78-0.14,0.78-0.39c0-0.37-0.33-0.43-1.13-0.64    c-1.35-0.31-3.65-0.98-3.65-3.33c0-2.09,1.87-3.2,4.45-3.2c2.4,0,3.74,0.94,3.74,0.94l-1.01,2.77c0,0-1.21-0.76-2.75-0.76    c-0.43,0-0.82,0.06-0.82,0.37c0,0.33,0.35,0.37,1.17,0.6c1.66,0.41,3.61,1.09,3.61,3.24c0,1.91-1.66,3.35-4.43,3.35    c-2.57,0-4.19-1.23-4.19-1.23L432.63,130.03z"></path>
		<path class="st76" d="M445.64,119.79h4.02l3.43,5.71c0.58,0.96,1,2.13,1,2.13h0.08c0,0-0.16-1.25-0.16-2.13v-5.71h4.08v13.94    h-4.09l-3.45-5.99c-0.51-0.84-0.99-2.11-0.99-2.11h-0.08c0,0,0.16,1.23,0.16,2.11v5.99h-3.98V119.79z"></path>
		<path class="st76" d="M465,123.45c3.2,0,4.8,2.07,4.8,4.68c0,0.45-0.08,1.25-0.08,1.25h-6.08c0.16,1.11,0.99,1.56,2.09,1.56    c1.58,0,2.71-0.92,2.71-0.92l1.35,2.59c0,0-1.54,1.35-4.39,1.35c-4.02,0-5.85-2.59-5.85-5.27    C459.54,125.77,461.55,123.45,465,123.45z M466.13,127.33c-0.02-0.82-0.51-1.33-1.15-1.33c-0.74,0-1.17,0.53-1.29,1.33H466.13z"></path>
		<path class="st76" d="M471.76,126.87h-1.25v-3h1.34v-2.89h3.98v2.89h2.07v3h-2.07v2.38c0,1.15,0.92,1.29,1.5,1.29    c0.43,0,0.7-0.04,0.7-0.04v3.26c0,0-0.62,0.08-1.52,0.08c-1.87,0-4.76-0.55-4.76-4V126.87z"></path>
		<path class="st76" d="M478.64,123.69h3.96l0.97,5.46c0.12,0.55,0.1,1.15,0.1,1.15h0.08c0,0,0.02-0.6,0.16-1.15l1.11-5.46h3.53    l1.11,5.46c0.14,0.55,0.14,1.15,0.14,1.15h0.08c0,0,0-0.6,0.12-1.15l0.96-5.46h3.94l-2.71,10.04h-4.29l-0.9-4.17    c-0.12-0.55-0.18-1.17-0.18-1.17h-0.06c0,0-0.06,0.62-0.2,1.17l-0.9,4.17h-4.31L478.64,123.69z"></path>
		<path class="st76" d="M500.91,123.45c3.26,0,5.79,2.01,5.79,5.28c0,3.26-2.54,5.23-5.77,5.23c-3.26,0-5.79-1.97-5.79-5.23    C495.14,125.46,497.67,123.45,500.91,123.45z M500.93,130.79c0.96,0,1.72-0.74,1.72-2.05c0-1.33-0.76-2.11-1.72-2.11    c-0.97,0-1.74,0.78-1.74,2.11C499.19,130.05,499.96,130.79,500.93,130.79z"></path>
		<path class="st76" d="M508.03,123.69h3.86v1.46c0,0.33-0.06,0.7-0.06,0.7h0.06c0.37-1.23,1.54-2.34,2.91-2.34    c0.23,0,0.43,0.04,0.43,0.04v3.92c0,0-0.29-0.06-0.68-0.06c-0.9,0-1.83,0.33-2.22,1.35c-0.16,0.35-0.21,0.74-0.21,1.21v3.76h-4.08    V123.69z"></path>
		<path class="st76" d="M516.53,119.79h4.08v7.02h0.7l1.72-3.12h4.29l-2.75,4.56v0.04l3.08,5.44h-4.39l-1.87-3.71h-0.78v3.71h-4.08    V119.79z"></path>
	</g>
</g>
</svg>
